<?xml version="1.0" standalone="no"?>
<!DOCTYPE svg PUBLIC "-//W3C//DTD SVG 20010904//EN"
 "http://www.w3.org/TR/2001/REC-SVG-20010904/DTD/svg10.dtd">
<svg version="1.0" xmlns="http://www.w3.org/2000/svg"
 width="300.000000pt" height="300.000000pt" viewBox="0 0 300.000000 300.000000"
 preserveAspectRatio="xMidYMid meet">
<metadata>
Created by potrace 1.10, written by Peter Selinger 2001-2011
</metadata>
<g transform="translate(0.000000,300.000000) scale(0.100000,-0.100000)"
fill="#000000" stroke="none">
<path d="M1520 2485 c0 -52 -3 -100 -6 -109 -5 -12 0 -16 20 -16 25 0 26 2 26
64 0 35 3 84 6 108 6 44 5 46 -20 46 l-26 0 0 -93z"/>
<path d="M1615 2523 c-4 -27 -10 -73 -15 -103 -4 -30 -7 -56 -6 -56 0 -1 10
-4 22 -8 20 -6 22 -2 28 61 4 38 10 87 13 111 5 38 4 42 -15 42 -17 0 -22 -8
-27 -47z"/>
<path d="M1185 2517 c-33 -11 -61 -21 -63 -22 -3 -3 34 -128 53 -182 2 -6 13
-9 25 -6 16 4 20 11 16 24 -3 11 -9 28 -12 39 -5 16 1 21 40 31 48 12 51 15
38 37 -7 10 -17 9 -52 -3 -24 -8 -44 -14 -46 -13 -1 2 -5 14 -9 28 -6 24 -3
27 45 39 37 9 50 17 48 29 -4 22 -15 22 -83 -1z"/>
<path d="M1432 2470 c6 -56 -8 -84 -38 -79 -15 3 -21 17 -28 62 -8 50 -12 58
-30 55 -18 -3 -20 -9 -17 -47 6 -92 42 -127 99 -97 22 11 32 12 34 4 2 -6 11
-9 19 -6 13 5 14 16 8 60 -4 29 -8 63 -8 76 -1 16 -7 22 -22 22 -20 0 -21 -4
-17 -50z"/>
<path d="M1795 2485 c-14 -13 -25 -30 -25 -36 0 -7 21 -31 46 -55 65 -59 44
-89 -29 -40 -28 20 -38 22 -46 12 -20 -24 46 -66 101 -66 41 0 58 15 58 52 0
22 -9 35 -40 56 -41 28 -50 49 -26 58 15 6 56 -12 68 -29 9 -14 40 11 32 25
-8 12 -83 47 -102 48 -7 0 -24 -11 -37 -25z"/>
<path d="M1984 2415 c-4 -9 -13 -14 -21 -11 -7 3 -17 -2 -20 -11 -4 -9 -2 -18
4 -20 7 -3 2 -21 -13 -47 -28 -50 -24 -70 17 -92 27 -14 29 -13 29 6 0 11 -4
20 -10 20 -15 0 -12 27 6 61 13 25 18 28 30 18 11 -9 18 -9 26 -1 9 9 7 15 -7
26 -16 11 -17 16 -6 29 10 13 9 17 -9 27 -16 9 -21 8 -26 -5z"/>
<path d="M2068 2313 c-2 -12 6 -22 24 -30 18 -8 28 -20 28 -33 0 -25 -5 -25
-37 0 -29 23 -54 25 -71 8 -28 -28 0 -88 42 -88 9 0 15 -4 12 -9 -3 -5 1 -15
10 -22 13 -11 19 -8 40 17 13 16 31 42 40 58 15 27 15 30 -4 55 -10 14 -33 34
-50 44 -29 17 -31 17 -34 0z m25 -109 c-3 -14 -34 -17 -45 -6 -6 6 -8 18 -4
27 6 16 9 16 29 2 12 -8 21 -18 20 -23z"/>
<path d="M854 2274 c-4 -16 -9 -21 -14 -14 -5 8 -10 6 -20 -5 -10 -13 -5 -23
35 -70 50 -59 56 -62 74 -42 8 10 4 20 -19 42 -30 29 -39 68 -20 80 8 5 7 11
-1 21 -17 21 -28 17 -35 -12z"/>
<path d="M1042 2291 c-20 -12 -10 -46 13 -46 14 0 20 7 20 24 0 27 -13 35 -33
22z"/>
<path d="M2159 2161 c-33 -33 -35 -50 -15 -90 22 -41 86 -64 86 -30 0 5 -11
15 -25 21 -33 15 -41 44 -19 69 30 33 67 21 76 -26 4 -24 38 -34 38 -10 0 29
-28 71 -55 83 -39 18 -54 15 -86 -17z"/>
<path d="M725 2154 c-33 -36 -31 -69 4 -105 38 -38 65 -37 107 5 38 38 44 66
14 66 -13 0 -20 -7 -20 -20 0 -20 -44 -49 -56 -37 -4 3 10 25 30 48 41 49 35
69 -21 69 -24 0 -41 -8 -58 -26z m65 -17 c0 -8 -11 -24 -25 -37 l-25 -23 0 24
c0 27 17 49 37 49 7 0 13 -6 13 -13z"/>
<path d="M2298 2047 c-49 -28 -88 -54 -88 -57 0 -3 4 -11 9 -19 7 -10 13 -11
31 -1 34 18 48 -2 28 -42 -11 -24 -13 -39 -5 -55 15 -33 23 -28 37 23 15 53
27 60 71 45 18 -6 34 -9 37 -6 10 10 -31 44 -62 51 -51 11 -51 15 0 45 27 15
49 33 48 39 -2 25 -4 30 -11 29 -5 -1 -47 -24 -95 -52z"/>
<path d="M636 2019 c-14 -11 -26 -29 -26 -40 0 -10 -10 -29 -21 -40 l-22 -22
94 -48 c86 -45 95 -47 107 -32 11 15 8 19 -15 31 -16 8 -29 16 -31 17 -2 2 6
13 17 24 21 21 28 66 13 87 -12 18 -56 44 -73 44 -9 0 -28 -9 -43 -21z m82
-67 c3 -26 -1 -32 -23 -38 -31 -8 -55 10 -55 42 0 53 73 50 78 -4z"/>
<path d="M575 1848 c-32 -17 -45 -39 -45 -79 0 -42 35 -79 76 -79 32 0 73 39
80 77 5 27 1 37 -24 63 -32 32 -54 36 -87 18z m53 -44 c41 -28 7 -94 -35 -68
-32 20 -39 41 -19 63 23 25 25 25 54 5z"/>
<path d="M2415 1798 c-49 -11 -91 -21 -93 -23 -2 -1 4 -31 12 -66 22 -98 80
-133 155 -94 42 21 53 63 39 141 -7 35 -15 63 -18 63 -3 -1 -45 -10 -95 -21z
m81 -113 c-5 -21 -43 -45 -70 -45 -19 0 -45 33 -56 69 -8 27 -6 31 13 35 12 3
40 9 62 13 39 9 40 8 48 -21 5 -16 6 -39 3 -51z"/>
<path d="M440 1660 c0 -14 9 -20 33 -24 17 -3 63 -10 101 -16 37 -6 70 -10 71
-8 2 2 5 12 7 23 3 17 -6 21 -82 31 -123 18 -130 17 -130 -6z"/>
<path d="M512 1567 c-44 -47 -11 -137 51 -137 57 0 99 68 77 124 -15 41 -36
27 -32 -21 2 -27 -2 -44 -12 -52 -14 -12 -16 -7 -16 48 0 57 -1 61 -23 61 -13
0 -33 -10 -45 -23z m48 -57 c0 -42 -9 -50 -30 -25 -15 19 -5 65 15 65 11 0 15
-11 15 -40z"/>
<path d="M2400 1567 c-36 -18 -54 -62 -43 -101 14 -48 38 -40 38 13 0 26 5 46
13 48 9 4 12 -12 12 -57 0 -53 2 -61 16 -56 9 3 20 6 25 6 22 0 49 42 49 75 0
33 -27 75 -49 75 -5 0 -15 2 -23 5 -7 3 -24 -1 -38 -8z m75 -72 c0 -20 -6 -31
-17 -33 -15 -3 -18 4 -18 33 0 29 3 36 18 33 11 -2 17 -13 17 -33z"/>
<path d="M490 1396 c0 -20 13 -27 74 -40 l51 -12 -47 -28 c-37 -21 -48 -34
-48 -53 0 -27 -3 -28 83 30 45 30 57 43 55 60 -2 18 -16 24 -78 39 -92 21 -90
21 -90 4z"/>
<path d="M2425 1379 c-22 -5 -50 -11 -61 -14 -12 -3 -24 -14 -27 -25 -4 -16 8
-29 59 -65 71 -49 84 -54 84 -27 0 9 -20 29 -45 45 -48 31 -50 47 -7 47 45 0
70 11 75 31 6 22 -10 23 -78 8z"/>
<path d="M646 1244 c-3 -9 1 -22 9 -30 16 -17 20 -60 6 -68 -8 -5 -41 68 -41
92 0 19 -25 14 -48 -11 -57 -60 11 -159 87 -128 28 12 51 47 51 77 0 23 -27
71 -44 77 -8 3 -17 -1 -20 -9z m-27 -75 c14 -40 14 -39 -4 -39 -18 0 -38 37
-31 56 9 23 23 16 35 -17z"/>
<path d="M2315 1218 c-15 -14 -28 -38 -32 -60 -5 -34 -3 -38 16 -38 16 0 21 6
21 28 0 30 16 52 37 52 9 0 6 -16 -11 -54 -13 -30 -22 -57 -18 -60 3 -3 20 -6
37 -6 70 0 103 96 49 139 -34 27 -67 27 -99 -1z m95 -63 c0 -14 -9 -29 -21
-35 -29 -16 -32 -9 -14 34 17 40 35 40 35 1z"/>
<path d="M2240 1080 c-9 -16 1 -25 82 -74 87 -51 94 -53 102 -35 5 11 7 21 5
23 -2 1 -43 26 -91 54 -82 47 -89 50 -98 32z"/>
<path d="M628 1050 c-26 -26 -30 -37 -25 -68 2 -20 19 -60 36 -88 l32 -51 84
56 84 55 -17 30 c-9 16 -31 44 -48 62 -26 28 -39 34 -73 34 -34 0 -49 -6 -73
-30z m127 -36 c14 -15 25 -32 25 -38 -1 -8 -63 -54 -100 -73 -8 -5 -40 57 -40
78 0 27 35 59 65 59 15 0 36 -11 50 -26z"/>
<path d="M2176 979 c-30 -35 -33 -65 -10 -97 34 -49 106 -45 134 7 46 87 -61
165 -124 90z m91 -36 c13 -19 12 -24 -7 -43 -19 -19 -24 -20 -43 -7 -27 17
-33 43 -16 63 17 20 48 14 66 -13z"/>
<path d="M2052 927 c-9 -11 -6 -19 14 -38 l26 -24 -23 -5 c-57 -14 -73 -86
-29 -130 37 -37 120 -17 120 29 0 7 4 10 9 7 4 -3 15 0 24 7 14 11 8 21 -48
87 -35 41 -68 76 -73 78 -5 1 -14 -4 -20 -11z m83 -127 c16 -49 -56 -71 -77
-24 -11 23 -10 29 11 45 26 22 55 12 66 -21z"/>
<path d="M855 834 c-14 -15 -25 -37 -25 -49 0 -30 37 -75 61 -75 19 0 19 -1
-3 -30 -19 -27 -20 -32 -7 -45 13 -14 22 -6 81 69 55 70 64 87 53 96 -8 7 -19
9 -25 5 -5 -3 -10 0 -10 8 0 23 -35 47 -69 47 -22 0 -40 -8 -56 -26z m99 -36
c24 -39 -44 -79 -74 -43 -21 25 3 67 37 63 14 -2 31 -11 37 -20z"/>
<path d="M1915 761 c-11 -5 -29 -18 -40 -30 -16 -19 -17 -24 -5 -31 10 -6 20
-3 33 11 17 18 67 27 67 12 0 -5 -23 -21 -51 -37 l-51 -28 23 -24 c33 -36 80
-32 114 8 31 37 28 71 -11 106 -26 23 -46 26 -79 13z m65 -106 c-14 -17 -46
-20 -54 -6 -3 5 9 18 27 30 27 17 33 18 35 5 2 -8 -2 -21 -8 -29z"/>
<path d="M1040 750 c0 -5 16 -16 35 -24 33 -14 54 -40 42 -52 -3 -3 -26 6 -52
21 -51 30 -67 26 -67 -20 0 -67 88 -99 137 -50 34 33 32 70 -6 106 -30 28 -89
41 -89 19z m31 -85 c31 -16 31 -35 0 -35 -20 0 -41 19 -41 37 0 17 5 16 41 -2z"/>
<path d="M1787 704 c-3 -3 1 -24 9 -46 19 -55 18 -69 -7 -75 -12 -4 -18 -11
-15 -20 3 -8 6 -17 6 -19 0 -11 28 -2 33 10 3 9 15 12 31 9 31 -6 31 -6 4 79
-15 47 -27 68 -38 68 -9 0 -19 -3 -23 -6z"/>
<path d="M1198 616 c-22 -39 -47 -81 -54 -93 -14 -22 -13 -23 10 -23 20 0 32
12 58 60 18 33 36 60 41 60 4 0 8 -22 8 -50 1 -27 3 -54 4 -60 1 -5 3 -17 4
-26 1 -10 9 -14 23 -12 15 2 33 23 57 68 l36 65 9 -77 c7 -64 12 -78 28 -84
11 -3 21 -4 23 -2 2 2 0 33 -5 68 -5 36 -10 82 -12 102 -2 30 -7 38 -26 43
-13 3 -26 5 -27 3 -1 -2 -18 -30 -36 -63 -34 -60 -34 -60 -40 -30 -4 17 -7 49
-8 71 -1 36 -4 42 -26 47 -23 4 -30 -3 -67 -67z"/>
<path d="M1604 645 c-4 -9 -2 -21 4 -27 16 -16 47 -5 47 17 0 26 -42 34 -51
10z"/>
</g>
</svg>
